<svg id="Layer_1" enable-background="new 0 0 100 100" height="100" viewBox="0 0 100 100" width="100" xmlns="http://www.w3.org/2000/svg"><path d="m16.667 90h66.667c3.665 0 6.666-3.001 6.666-6.667v-66.666c0-3.666-3.001-6.667-6.667-6.667h-66.666c-3.666 0-6.667 3.001-6.667 6.667v66.667c0 3.665 3.001 6.666 6.667 6.666zm0-73.333h66.667v66.667h-66.667z"/><path d="m26.667 66.667h46.667v6.666h-46.667z"/><path d="m40 36.667c0-1.841-1.493-3.333-3.333-3.333s-3.333 1.492-3.333 3.333v13.33c0 1.841 1.492 3.333 3.333 3.333s3.333-1.492 3.333-3.333h6.667c0 5.524-4.479 10-10 10s-10-4.477-10-10v-13.33c0-5.522 4.479-10 10-10s10 4.478 10 10z"/><path d="m66.462 26.667h6.871l-8.333 33.333h-6.667l-8.333-33.333h6.872l4.795 19.179z"/></svg>