<?xml version="1.0" encoding="utf-8"?>
<!-- Generator: Adobe Illustrator 28.2.0, SVG Export Plug-In . SVG Version: 6.00 Build 0)  -->
<svg version="1.1" id="Calque_1" xmlns="http://www.w3.org/2000/svg" xmlns:xlink="http://www.w3.org/1999/xlink" x="0px" y="0px"
	 viewBox="0 0 24 24" style="enable-background:new 0 0 24 24;" xml:space="preserve">
<style type="text/css">
	.st0{fill:#1D1D1B;}
</style>
<path class="st0" d="M12.8,14.3c0.2-0.7,0.4-1.4,0.4-2.2c2,0.7,4.2-0.7,4.3-3.3c0,0-3.3-0.1-4.2,2c0-0.5,0-0.9,0-1.2
	c1.1-1.7,0.4-4-1.9-5c0,0-1.4,3.7,1.1,5.2c0,0.5,0,1,0,1.7c-0.5-2.9-4.6-2.8-4.6-2.8c0.1,2.7,2.5,4.1,4.4,3.3
	c-0.1,0.9-0.3,1.9-0.6,2.8c-1.1-2.9-5.1-1.8-5.1-1.8c0.7,2.5,3.2,3.3,4.9,2.3c-0.2,0.5-0.5,0.9-0.8,1.3c-1,1.2-2.5,2.1-4.3,2.2
	c-0.2,0-0.3,0.2-0.3,0.4c0,0.2,0.2,0.3,0.3,0.3l0,0c2.1-0.2,3.6-1,4.9-2.5c0.4-0.5,0.7-1.1,1-1.8c1.4,1.4,4.1,1,5.3-1.3
	C17.8,14,14.6,12.4,12.8,14.3z"/>
<path class="st0" d="M12,0.7c6.2,0,11.3,5.1,11.3,11.3S18.2,23.3,12,23.3S0.7,18.2,0.7,12S5.8,0.7,12,0.7 M12,0C5.4,0,0,5.4,0,12
	s5.4,12,12,12s12-5.4,12-12S18.6,0,12,0L12,0z"/>
</svg>
