<?xml version="1.0" encoding="utf-8"?>
<!-- Generator: Adobe Illustrator 28.1.0, SVG Export Plug-In . SVG Version: 6.00 Build 0)  -->
<svg version="1.1" id="Calque_1" xmlns="http://www.w3.org/2000/svg" xmlns:xlink="http://www.w3.org/1999/xlink" x="0px" y="0px"
	 viewBox="0 0 24 24" style="enable-background:new 0 0 24 24;" xml:space="preserve">
<path d="M12,15.6L8.5,12l0.7-0.7l2.3,2.3V5h1v8.6l2.3-2.3l0.7,0.7L12,15.6z M6.6,19c-0.5,0-0.8-0.2-1.2-0.5C5.2,18.2,5,17.8,5,17.4
	V15h1v2.4c0,0.2,0.1,0.3,0.2,0.4C6.3,17.9,6.5,18,6.6,18h10.8c0.2,0,0.3-0.1,0.4-0.2c0.1-0.1,0.2-0.3,0.2-0.4V15h1v2.4
	c0,0.5-0.2,0.8-0.5,1.2c-0.3,0.3-0.7,0.5-1.2,0.5C17.4,19,6.6,19,6.6,19z"/>
</svg>
