<?xml version="1.0" encoding="utf-8"?>
<svg version="1.1" id="Calque_1" xmlns="http://www.w3.org/2000/svg" x="0px" y="0px"
	 viewBox="0 0 24 24" style="enable-background:new 0 0 24 24;" xml:space="preserve">
<style type="text/css">
	.st0{fill:#1D1D1B;}
</style>
<path class="st0" d="M12,23.3C5.8,23.3,0.7,18.2,0.7,12S5.8,0.7,12,0.7S23.3,5.8,23.3,12S18.2,23.3,12,23.3 M12,24
	c6.6,0,12-5.4,12-12S18.6,0,12,0S0,5.4,0,12S5.4,24,12,24L12,24z"/>
<path d="M14.6,6.2c0.2,0,0.3,0.1,0.4,0.2c0.1,0.1,0.2,0.3,0.2,0.4S15.1,7.1,15,7.2l-4.5,4.5c-0.2,0.2-0.2,0.5,0,0.7l4.5,4.5
	c0.1,0.1,0.2,0.3,0.2,0.4c0,0.2-0.1,0.3-0.2,0.4c-0.1,0.1-0.3,0.2-0.4,0.2s-0.3-0.1-0.4-0.2L9,12.4c-0.1-0.1-0.2-0.3-0.2-0.4
	s0.1-0.3,0.2-0.4l5.2-5.2C14.3,6.3,14.4,6.2,14.6,6.2z"/>
</svg>
