<?xml version="1.0" encoding="utf-8"?>
<svg version="1.1" id="Calque_1" xmlns="http://www.w3.org/2000/svg" x="0px" y="0px"
	 viewBox="0 0 24 24" style="enable-background:new 0 0 24 24;" xml:space="preserve">
<path d="M17.9,0.2H6.1c-3.2,0-5.9,2.7-5.9,5.9v3v8.8c0,3.2,2.7,5.9,5.9,5.9h11.8c3.2,0,5.9-2.7,5.9-5.9V9.1v-3
	C23.8,2.9,21.1,0.2,17.9,0.2z M15.9,12c0,2.2-1.8,3.9-3.9,3.9S8.1,14.2,8.1,12c0-1.2,0.5-2.2,1.3-2.9c0.7-0.6,1.6-1,2.6-1
	s1.9,0.4,2.6,1C15.4,9.8,15.9,10.8,15.9,12z M18.4,4.1c0.8,0,1.5,0.7,1.5,1.5s-0.7,1.5-1.5,1.5c-0.8,0-1.5-0.7-1.5-1.5
	S17.6,4.1,18.4,4.1z M21.8,17.9c0,2.2-1.8,3.9-3.9,3.9H6.1c-2.2,0-3.9-1.8-3.9-3.9V9.1h4.7C6.4,9.9,6.1,10.9,6.1,12
	c0,3.3,2.6,5.9,5.9,5.9s5.9-2.6,5.9-5.9c0-1.1-0.3-2.1-0.8-2.9h4.7V17.9z"/>
</svg>
