<?xml version="1.0" encoding="utf-8"?>
<!-- Generator: Adobe Illustrator 28.1.0, SVG Export Plug-In . SVG Version: 6.00 Build 0)  -->
<svg version="1.1" id="Calque_1" xmlns="http://www.w3.org/2000/svg" xmlns:xlink="http://www.w3.org/1999/xlink" x="0px" y="0px"
	 viewBox="0 0 24 24" style="enable-background:new 0 0 24 24;" xml:space="preserve">
<path d="M12,16.7c1,0,1.9-0.4,2.6-1.1c0.7-0.7,1.1-1.6,1.1-2.6s-0.4-1.9-1.1-2.6C13.9,9.6,13,9.3,12,9.3s-1.9,0.4-2.6,1.1
	C8.6,11.1,8.3,12,8.3,13s0.4,1.9,1.1,2.6C10.1,16.4,11,16.7,12,16.7z M12,15.7c-0.8,0-1.4-0.3-1.9-0.8c-0.5-0.5-0.8-1.2-0.8-1.9
	s0.3-1.4,0.8-1.9c0.5-0.5,1.2-0.8,1.9-0.8c0.8,0,1.4,0.3,1.9,0.8c0.5,0.5,0.8,1.2,0.8,1.9c0,0.8-0.3,1.4-0.8,1.9
	C13.4,15.5,12.8,15.7,12,15.7z M4.6,20c-0.5,0-0.8-0.2-1.2-0.5C3.2,19.2,3,18.8,3,18.4V7.6c0-0.5,0.2-0.8,0.5-1.2S4.2,6,4.6,6h3
	l1.9-2h5.2l1.8,2h3c0.5,0,0.8,0.2,1.2,0.5S21,7.2,21,7.6v10.8c0,0.5-0.2,0.8-0.5,1.2c-0.3,0.3-0.7,0.5-1.2,0.5
	C19.4,20,4.6,20,4.6,20z M4.6,19h14.8c0.2,0,0.3-0.1,0.4-0.2c0.1-0.1,0.2-0.3,0.2-0.4V7.6c0-0.2-0.1-0.3-0.2-0.4
	C19.7,7.1,19.6,7,19.4,7H16l-1.8-2H9.9L8,7H4.6C4.4,7,4.3,7.1,4.2,7.2C4.1,7.3,4,7.4,4,7.6v10.8c0,0.2,0.1,0.3,0.2,0.4
	C4.3,18.9,4.4,19,4.6,19z"/>
</svg>
