<?xml version="1.0" encoding="utf-8"?>
<!-- Generator: Adobe Illustrator 28.2.0, SVG Export Plug-In . SVG Version: 6.00 Build 0)  -->
<svg version="1.1" id="Calque_1" xmlns="http://www.w3.org/2000/svg" xmlns:xlink="http://www.w3.org/1999/xlink" x="0px" y="0px"
	 viewBox="0 0 24 24" style="enable-background:new 0 0 24 24;" xml:space="preserve">
<style type="text/css">
	.st0{fill:#1D1D1B;}
</style>
<g>
	<path class="st0" d="M23.3,12c0,6.2-5.1,11.3-11.3,11.3S0.7,18.2,0.7,12S5.8,0.7,12,0.7S23.3,5.8,23.3,12 M24,12
		c0-6.6-5.4-12-12-12S0,5.4,0,12s5.4,12,12,12S24,18.6,24,12L24,12z"/>
	<path d="M6.2,9.4c0-0.2,0.1-0.3,0.2-0.4c0.1-0.1,0.3-0.2,0.4-0.2S7.1,8.9,7.2,9l4.5,4.5c0.2,0.2,0.5,0.2,0.7,0L16.8,9
		c0.1-0.1,0.3-0.2,0.4-0.2c0.2,0,0.3,0.1,0.4,0.2c0.1,0.1,0.2,0.3,0.2,0.4c0,0.2-0.1,0.3-0.2,0.4L12.4,15c-0.1,0.1-0.3,0.2-0.4,0.2
		s-0.3-0.1-0.4-0.2L6.4,9.8C6.3,9.7,6.2,9.5,6.2,9.4z"/>
</g>
</svg>
