<?xml version="1.0" encoding="utf-8"?>
<!-- Generator: Adobe Illustrator 28.1.0, SVG Export Plug-In . SVG Version: 6.00 Build 0)  -->
<svg version="1.1" id="Calque_1" xmlns="http://www.w3.org/2000/svg" xmlns:xlink="http://www.w3.org/1999/xlink" x="0px" y="0px"
	 viewBox="0 0 24 24" style="enable-background:new 0 0 24 24;" xml:space="preserve">
<path d="M14.8,12L11,8.2l-0.7,0.7l3.1,3.1l-3.1,3.1l0.7,0.7L14.8,12z M21,12c0,1.2-0.2,2.4-0.7,3.5c-0.5,1.1-1.1,2-1.9,2.9
	c-0.8,0.8-1.8,1.5-2.9,1.9C14.4,20.8,13.2,21,12,21c-1.2,0-2.4-0.2-3.5-0.7c-1.1-0.5-2-1.1-2.9-1.9c-0.8-0.8-1.5-1.8-1.9-2.9
	C3.2,14.4,3,13.2,3,12c0-1.2,0.2-2.4,0.7-3.5c0.5-1.1,1.1-2,1.9-2.9c0.8-0.8,1.8-1.5,2.9-1.9C9.6,3.2,10.8,3,12,3
	c1.2,0,2.4,0.2,3.5,0.7c1.1,0.5,2,1.1,2.9,1.9c0.8,0.8,1.5,1.8,1.9,2.9C20.8,9.6,21,10.8,21,12z M20,12c0-2.2-0.8-4.1-2.3-5.7
	C16.1,4.8,14.2,4,12,4S7.9,4.8,6.3,6.3S4,9.8,4,12s0.8,4.1,2.3,5.7C7.9,19.2,9.8,20,12,20s4.1-0.8,5.7-2.3C19.2,16.1,20,14.2,20,12z
	"/>
</svg>
