<?xml version="1.0" encoding="utf-8"?>
<!-- Generator: Adobe Illustrator 28.2.0, SVG Export Plug-In . SVG Version: 6.00 Build 0)  -->
<svg version="1.1" id="Calque_1" xmlns="http://www.w3.org/2000/svg" xmlns:xlink="http://www.w3.org/1999/xlink" x="0px" y="0px"
	 viewBox="0 0 24 24" style="enable-background:new 0 0 24 24;" xml:space="preserve">
<style type="text/css">
	.st0{fill:#1D1D1B;}
</style>
<g>
	<path class="st0" d="M12,0.7c6.2,0,11.3,5.1,11.3,11.3S18.2,23.3,12,23.3S0.7,18.2,0.7,12S5.8,0.7,12,0.7 M12,0C5.4,0,0,5.4,0,12
		s5.4,12,12,12s12-5.4,12-12S18.6,0,12,0L12,0z"/>
	<path d="M9.4,17.8c-0.2,0-0.3-0.1-0.4-0.2c-0.1-0.1-0.2-0.3-0.2-0.4s0.1-0.3,0.2-0.4l4.5-4.5c0.2-0.2,0.2-0.5,0-0.7L9,7.2
		C8.9,7.1,8.8,6.9,8.8,6.8c0-0.2,0.1-0.3,0.2-0.4c0.1-0.1,0.3-0.2,0.4-0.2c0.2,0,0.3,0.1,0.4,0.2l5.2,5.2c0.1,0.1,0.2,0.3,0.2,0.4
		s-0.1,0.3-0.2,0.4l-5.2,5.2C9.7,17.7,9.5,17.8,9.4,17.8z"/>
</g>
</svg>
